# xmcd
#
# Track frame offsets:
# 150
# 81217
# 132472
# 172855
# 212006
# 238420
# 261141
# 289551
#
# Disc length: 4033 seconds
#
#
# Revision: 2
# Processed by: cddbd v1.5.2PL0 Copyright (c) Steve Scherf et al.
# Submitted via: FreeRIP 2.951 
#
DISCID=700fbf08
DTITLE=Gulda - Stein - Wiener Philharmoniker - Beethoven - Klavierwerke CD 10
DYEAR=1971
DGENRE=Klassik
TTITLE0=Konzert für Klavier und Orchester Nr. 1 C-Dur op.15 - I. Allegro assai
TTITLE1=Konzert für Klavier und Orchester Nr. 1 C-Dur op.15 - II. Largo
TTITLE2=Konzert für Klavier und Orchester Nr. 1 C-Dur op.15 - III. Rondo. Allegro scherzando
TTITLE3=Klaviersonate Nr. 23 f-moll op. 57 "Appassionata" (1973) - I. Allegro con brio
TTITLE4=Klaviersonate Nr. 23 f-moll op. 57 "Appassionata" (1973) - II. Andante con moto - attaca:
TTITLE5=Klaviersonate Nr. 23 f-moll op. 57 "Appassionata" (1973) - III. Allegro ma non troppo - Presto
TTITLE6=Klaviersonate Nr. 24 Fis-Dur op. 78 "À Thérèse"  - I. Adagio cantabile - Allegro ma non troppo
TTITLE7=Klaviersonate Nr. 24 Fis-Dur op. 78 "À Thérèse"  - II. Allegro vivace
EXTD=
EXTT0=
EXTT1=
EXTT2=
EXTT3=
EXTT4=
EXTT5=
EXTT6=
EXTT7=
PLAYORDER=
